<?xml version="1.0" standalone="no"?>
<!DOCTYPE svg PUBLIC "-//W3C//DTD SVG 20010904//EN"
 "http://www.w3.org/TR/2001/REC-SVG-20010904/DTD/svg10.dtd">
<svg version="1.0" xmlns="http://www.w3.org/2000/svg"
 width="1024.000000pt" height="1024.000000pt" viewBox="0 0 1024.000000 1024.000000"
 preserveAspectRatio="xMidYMid meet">

<g transform="translate(0.000000,1024.000000) scale(0.100000,-0.100000)"
fill="#000000" stroke="none">
<path d="M3880 7854 c-533 -68 -956 -281 -1248 -629 -224 -267 -341 -562 -372
-939 -24 -297 33 -609 165 -891 195 -419 575 -749 1051 -913 179 -62 453 -122
556 -122 57 0 24 8 -92 24 -148 19 -222 35 -215 47 4 5 -1 6 -9 3 -8 -3 -57 6
-108 21 -322 90 -599 245 -828 461 -48 45 -67 70 -63 81 4 10 2 14 -4 10 -6
-4 -27 11 -46 32 -36 40 -62 81 -52 81 3 0 0 10 -7 23 -7 12 -11 27 -9 32 1 6
-3 5 -10 -2 -14 -14 -28 1 -82 95 -41 69 -42 72 -27 72 6 0 10 -7 10 -15 0 -8
4 -15 9 -15 5 0 9 11 9 25 0 28 -2 29 -28 15 -15 -8 -20 -5 -28 18 -5 15 -13
35 -17 44 -5 13 0 20 20 28 15 6 25 13 22 17 -4 3 -18 -2 -33 -12 -25 -16 -27
-16 -21 -1 4 10 3 14 -3 11 -5 -3 -13 9 -19 27 -5 18 -23 69 -39 113 -99 270
-119 650 -50 950 23 103 56 211 72 240 6 11 16 36 21 55 8 26 16 34 31 32 15
-2 16 -1 5 7 -13 8 -10 18 14 63 27 51 105 178 109 178 1 0 1 -22 1 -50 0 -48
0 -49 -22 -35 -18 12 -22 12 -27 -1 -9 -22 -8 -23 16 -16 14 3 19 1 14 -6 -3
-6 -16 -9 -27 -7 -15 3 -19 0 -15 -11 3 -9 1 -12 -4 -9 -6 3 -10 1 -10 -4 0
-12 26 -15 33 -3 2 4 2 2 1 -5 -2 -6 0 -14 4 -16 4 -2 1 -2 -7 0 -8 2 -11 -2
-8 -12 4 -8 -1 -18 -10 -23 -13 -8 -12 -11 7 -25 17 -11 21 -22 17 -39 -5 -19
-2 -24 13 -25 11 -1 20 3 20 8 0 6 -4 8 -8 5 -11 -7 -8 31 3 41 4 5 5 3 2 -4
-11 -18 20 -42 49 -37 19 3 24 1 18 -8 -4 -7 -3 -10 1 -5 9 8 18 47 11 47 -3
0 -12 -8 -22 -17 -13 -13 -16 -14 -12 -3 2 8 15 21 29 28 24 12 23 12 -8 10
-32 -2 -37 -7 -34 -38 1 -8 -6 -3 -14 13 -11 19 -24 27 -43 27 l-27 0 32 21
c18 12 30 25 27 30 -8 14 26 23 38 11 8 -8 4 -14 -14 -21 -15 -5 -29 -15 -33
-21 -4 -7 6 -5 23 4 19 10 33 12 37 6 3 -6 -3 -10 -14 -10 -11 0 -23 -5 -26
-10 -8 -13 54 -3 72 11 8 8 16 5 25 -10 12 -20 29 -29 27 -13 -4 23 2 42 12
36 7 -4 10 0 7 11 -1 10 -11 19 -21 21 -13 2 -15 -1 -8 -10 15 -18 -4 -43 -22
-28 -7 7 -18 8 -22 4 -5 -4 -5 -1 -1 6 4 6 2 12 -3 12 -6 0 -11 5 -11 10 0 6
11 3 25 -6 23 -15 25 -15 19 0 -3 9 -13 16 -21 16 -9 0 -11 5 -7 13 5 8 2 7
-9 -2 -10 -8 -21 -10 -25 -6 -4 4 -1 10 6 12 6 3 10 9 7 13 -3 5 0 12 6 16 8
4 9 3 5 -4 -4 -7 -3 -12 3 -12 5 0 12 6 15 13 3 6 4 3 3 -8 -1 -12 5 -21 17
-23 11 -2 16 0 12 7 -4 7 -1 9 8 5 8 -3 19 3 26 15 7 14 7 21 0 21 -5 0 -10
-6 -10 -12 0 -9 -4 -8 -10 2 -5 8 -10 24 -10 35 0 17 2 17 10 5 6 -9 10 -10
10 -3 0 6 -4 15 -10 18 -6 4 -5 13 2 25 10 15 10 22 0 32 -6 6 -12 19 -12 27
0 9 7 3 16 -14 8 -16 13 -37 11 -47 -3 -10 0 -18 5 -18 18 0 58 -50 52 -65 -4
-8 -10 -13 -14 -10 -5 3 -12 0 -16 -6 -4 -8 -3 -9 4 -5 16 10 15 5 -9 -51 -81
-185 -129 -400 -141 -633 -2 -34 -9 -60 -18 -68 -13 -11 -13 -11 0 -7 13 5 16
-11 18 -107 1 -61 9 -159 17 -217 17 -121 76 -349 111 -433 27 -65 29 -72 13
-62 -6 3 -4 -8 5 -24 19 -37 20 -45 4 -39 -7 2 -23 -5 -36 -17 -19 -17 -22
-17 -16 -3 3 9 9 17 13 17 4 0 7 9 8 21 2 18 0 18 -19 -6 -25 -33 -35 -26 -13
9 10 14 15 26 12 26 -3 0 1 12 9 28 11 22 12 29 1 37 -8 6 -16 17 -20 25 -3
10 -6 7 -6 -8 -1 -29 -46 -79 -56 -63 -4 7 -2 18 4 25 14 16 8 79 -8 84 -14 5
-15 33 0 30 6 -2 13 8 15 22 3 18 2 21 -5 10 -5 -8 -7 -18 -4 -23 3 -5 -3 -4
-13 1 -15 8 -26 5 -49 -14 -24 -19 -25 -22 -8 -18 11 3 24 1 28 -6 4 -7 1 -11
-6 -10 -23 3 -59 -12 -53 -22 3 -5 14 -2 25 8 10 9 19 15 20 13 0 -2 3 -13 6
-24 2 -11 5 -28 6 -37 1 -14 4 -15 16 -5 12 10 13 7 8 -20 -7 -35 6 -46 36
-31 10 5 17 5 17 -1 0 -5 -6 -12 -12 -14 -10 -4 -10 -6 0 -6 6 -1 12 -12 12
-26 0 -14 5 -25 10 -25 6 0 10 -5 10 -10 0 -7 -6 -7 -19 0 -25 13 -28 13 -28
-4 0 -11 13 -13 56 -11 31 2 50 1 44 -1 -15 -6 -17 -40 -4 -48 5 -3 14 1 21 9
10 12 9 15 -6 16 -11 1 -6 5 14 11 17 6 32 15 32 21 0 5 -7 7 -15 4 -19 -8
-30 10 -15 28 8 10 8 19 1 34 -6 11 -11 23 -11 28 0 4 14 -16 30 -46 19 -34
28 -62 24 -75 -4 -15 -3 -17 4 -8 7 11 10 10 16 -3 9 -24 8 -27 -6 -19 -8 4
-10 3 -5 -2 5 -5 14 -9 20 -9 7 0 11 -9 9 -20 -4 -27 -2 -78 3 -84 3 -2 14 4
24 13 19 17 20 17 32 -6 7 -13 12 -27 11 -31 -1 -5 1 -6 6 -3 12 7 55 -52 47
-64 -4 -6 -3 -9 2 -8 4 1 71 -61 148 -138 77 -77 159 -153 182 -168 24 -16 40
-33 37 -41 -3 -7 2 -15 12 -19 14 -5 15 -4 4 9 -16 19 -6 19 25 -1 15 -10 22
-22 18 -32 -4 -13 -3 -14 5 -3 8 11 16 9 47 -12 33 -23 35 -26 18 -36 -10 -6
-13 -11 -7 -11 5 0 15 5 21 11 13 13 85 -19 76 -34 -3 -6 -1 -7 5 -3 14 9 63
-14 55 -27 -3 -6 -1 -7 4 -4 6 4 44 -7 85 -23 40 -16 79 -30 86 -30 7 0 10 -5
6 -12 -4 -7 -3 -8 4 -4 6 4 67 -7 134 -23 68 -17 144 -31 171 -32 26 -2 47 -5
47 -9 0 -3 14 -7 31 -8 36 -3 49 -9 49 -23 0 -13 -44 -11 -57 2 -7 7 -13 7
-17 1 -6 -10 -53 -4 -61 8 -3 5 4 6 15 3 11 -3 20 -1 20 5 0 5 -11 10 -25 10
-21 0 -24 -4 -19 -22 4 -11 3 -18 -1 -14 -13 12 -52 -60 -81 -147 -83 -255 -9
-562 176 -728 119 -107 224 -142 395 -134 115 5 177 22 270 70 47 25 128 86
113 87 -3 0 -24 -15 -47 -34 -132 -111 -415 -147 -581 -75 -64 28 -122 71
-112 81 6 6 24 -1 46 -16 21 -14 46 -28 57 -31 11 -4 16 -11 13 -17 -4 -6 -3
-8 3 -5 5 3 33 -1 62 -10 84 -24 202 -15 275 22 71 36 128 98 158 174 21 54
22 70 24 424 1 203 4 370 6 372 1 1 50 24 108 50 58 26 110 52 115 57 11 10
-17 -1 -150 -61 l-90 -40 -5 -388 c-5 -351 -7 -392 -24 -428 -32 -70 -74 -113
-141 -146 -232 -114 -524 39 -629 331 -37 102 -46 254 -22 364 17 74 30 113
62 182 l15 31 177 6 c355 12 552 75 1142 372 396 198 495 239 684 284 173 41
353 48 461 17 l40 -12 3 -669 c1 -413 -2 -690 -8 -724 -5 -29 -20 -74 -32 -98
-28 -57 -105 -127 -161 -146 -39 -14 -13 -15 327 -16 203 -1 367 1 364 4 -3 4
-156 6 -339 5 l-333 0 46 30 c53 35 90 80 121 148 22 47 22 51 25 754 l3 706
-32 23 c-30 21 -42 23 -198 23 -154 0 -175 -2 -291 -32 -69 -17 -172 -49 -229
-71 -57 -22 -109 -37 -114 -34 -6 3 -7 1 -3 -5 5 -8 -1 -11 -16 -9 -14 1 -22
-3 -21 -10 2 -7 -1 -13 -7 -13 -12 0 -156 -71 -403 -199 -103 -53 -186 -90
-195 -87 -9 3 -24 1 -32 -5 -12 -8 -9 -9 10 -4 46 11 -1 -12 -140 -68 -216
-87 -259 -100 -278 -85 -13 11 -14 11 -7 -1 6 -11 4 -13 -9 -8 -9 4 -15 3 -12
-2 13 -20 -217 -57 -303 -49 -28 3 -48 1 -45 -4 3 -4 -6 -8 -20 -8 -14 0 -27
4 -31 9 -3 6 4 8 15 6 11 -2 20 0 20 4 0 5 11 11 25 13 13 3 22 1 19 -3 -3 -5
10 -9 28 -9 24 0 29 3 19 9 -11 7 -6 11 20 15 133 19 191 30 243 42 32 9 65
13 73 10 8 -3 11 -1 8 4 -3 6 4 10 17 10 13 0 43 10 68 21 25 12 62 21 82 21
28 -1 36 3 31 14 -3 8 0 14 7 14 6 0 8 -5 4 -12 -5 -8 -2 -9 10 -5 10 4 21 7
24 7 4 0 1 4 -6 9 -9 5 14 20 71 44 47 20 149 71 228 113 205 108 455 229 519
252 30 10 84 29 120 41 36 13 79 27 95 33 17 6 77 21 135 34 122 27 302 31
416 9 38 -7 72 -11 77 -8 12 7 9 1074 -4 1135 -18 89 -41 141 -84 187 -38 41
-100 81 -127 81 -6 0 11 -12 40 -26 68 -34 117 -93 145 -174 21 -64 22 -77 25
-619 1 -305 1 -560 -2 -566 -3 -10 -17 -9 -58 2 -86 24 -301 21 -428 -6 -195
-41 -389 -116 -640 -244 -85 -44 -223 -114 -306 -157 -336 -172 -611 -250
-887 -251 -71 0 -131 1 -133 4 -7 6 78 127 128 183 26 28 79 77 118 109 38 31
67 62 63 68 -4 6 -1 7 6 3 13 -9 54 22 46 34 -3 4 3 14 13 21 15 13 16 12 3
-3 -21 -28 -3 -21 50 18 53 38 63 51 27 34 -22 -11 -22 -10 -4 4 10 9 23 13
27 10 14 -8 111 58 100 69 -7 7 -27 -1 -63 -23 -65 -41 -188 -130 -188 -137 0
-2 5 -1 12 3 7 4 8 3 4 -4 -4 -6 -12 -9 -19 -7 -13 5 -71 -46 -100 -89 -19
-27 -41 -27 -31 -1 4 8 10 13 15 10 11 -7 30 30 21 40 -4 5 -2 5 4 2 7 -4 15
0 18 9 4 10 2 13 -7 9 -6 -4 -3 2 9 12 30 26 53 93 74 213 10 59 33 146 53
195 48 124 61 185 54 269 -9 112 -56 229 -139 343 -42 58 -58 71 -58 48 0 -8
-18 -57 -39 -108 -50 -116 -63 -172 -62 -268 1 -91 23 -160 80 -257 58 -96 79
-198 62 -290 -22 -117 -81 -218 -204 -347 -16 -17 -51 -60 -79 -97 -60 -80
-61 -81 -217 -43 -143 35 -239 69 -355 127 -283 142 -497 333 -686 612 -260
386 -349 978 -224 1486 130 528 505 908 1029 1045 169 44 303 58 495 52 431
-14 741 -132 932 -356 45 -52 109 -170 157 -286 l20 -50 1 226 c0 171 -3 229
-13 237 -21 18 -208 109 -292 142 -280 111 -534 160 -865 165 -118 2 -231 1
-250 -1z m478 -26 c79 -7 115 -15 119 -24 3 -8 17 -14 32 -13 l26 1 -25 8
c-59 19 25 9 133 -15 231 -53 611 -206 638 -256 14 -26 8 -85 -8 -82 -9 2 -13
-8 -12 -30 1 -30 1 -31 9 -7 8 25 13 15 13 -25 0 -33 -3 -36 -22 -25 -27 14
-34 13 -19 -4 7 -8 17 -13 22 -13 13 3 25 -65 25 -143 l0 -65 -18 50 c-10 28
-23 61 -30 73 -7 12 -9 28 -5 34 4 7 3 8 -4 4 -7 -4 -17 4 -24 21 -19 43 -81
123 -134 174 -93 88 -205 156 -344 209 -51 19 -179 53 -225 60 -5 1 -1 5 10
10 19 8 19 9 -2 9 -13 1 -23 -3 -23 -7 0 -5 -42 -2 -92 6 -97 15 -486 23 -490
10 -2 -4 -41 -14 -88 -22 -196 -33 -420 -121 -589 -233 -51 -34 -133 -105
-201 -172 -63 -64 -118 -114 -122 -113 -4 1 -5 -4 -2 -12 3 -7 -2 -19 -11 -26
-9 -8 -37 -49 -61 -91 -47 -81 -62 -89 -82 -44 -11 23 -10 24 8 13 11 -7 20
-16 20 -21 0 -4 4 -6 9 -2 11 6 7 98 -5 117 -5 9 -1 8 12 -2 14 -10 12 -7 -4
12 -14 15 -19 28 -13 32 5 4 12 2 16 -4 4 -6 11 -8 16 -4 5 3 7 9 5 13 -3 3 8
7 22 6 24 0 27 4 24 28 -3 29 6 34 27 15 8 -7 6 -1 -3 14 -12 17 -14 28 -6 33
6 3 8 11 5 16 -4 5 -2 9 3 9 5 0 14 10 21 23 6 12 10 15 8 7 -3 -11 4 -16 24
-16 24 -1 27 1 18 12 -6 7 -8 22 -4 33 3 11 1 23 -6 27 -8 4 -9 3 -5 -4 4 -7
2 -12 -4 -12 -6 0 -8 -5 -4 -12 6 -10 5 -10 -7 -1 -19 15 -34 5 -43 -29 -4
-18 -11 -25 -20 -22 -8 3 -24 -5 -36 -18 -23 -23 -23 -23 -18 -1 5 17 2 21
-13 18 -23 -5 -25 8 -4 25 12 10 18 10 30 0 10 -9 15 -9 15 -1 0 6 6 11 14 11
7 0 21 11 30 25 9 14 13 25 8 25 -5 0 -18 -11 -30 -25 -12 -14 -28 -25 -34
-25 -16 0 30 44 102 96 92 68 264 165 283 160 9 -2 15 -1 12 3 -15 25 290 127
494 165 106 20 141 21 141 1 0 -8 5 -15 11 -15 5 0 7 5 4 10 -3 6 -1 10 4 10
6 0 11 -8 11 -17 0 -14 5 -12 25 9 23 25 32 28 87 26 39 -1 54 -4 42 -9 -13
-5 -14 -8 -4 -8 8 0 24 6 35 15 21 15 53 15 283 -8z m-1599 -505 c-13 -15 -17
-22 -8 -15 9 6 20 8 24 4 5 -4 5 -2 2 4 -4 7 0 17 8 24 12 10 15 9 16 -6 1
-11 1 -23 0 -27 -1 -5 3 -6 8 -3 5 4 12 -3 16 -14 4 -12 11 -17 18 -14 7 4 9
4 5 -1 -4 -4 -3 -13 2 -20 7 -8 5 -12 -5 -12 -8 0 -15 6 -15 14 0 12 -13 17
-32 14 -5 0 -8 4 -8 10 0 8 -5 8 -15 -1 -8 -7 -22 -10 -30 -6 -8 3 -15 1 -15
-5 0 -6 -4 -7 -10 -4 -6 3 -7 -1 -4 -9 4 -11 0 -16 -11 -16 -9 0 -13 -5 -10
-10 4 -6 11 -7 17 -4 7 5 8 2 3 -6 -6 -10 -4 -12 8 -7 10 3 17 2 17 -3 0 -6 6
-10 14 -10 9 0 13 -7 11 -19 -2 -11 2 -25 10 -31 7 -6 11 -20 8 -31 -6 -21
-24 -21 -31 1 -3 9 0 10 9 4 11 -6 12 -5 2 8 -7 8 -9 18 -5 23 4 4 -3 5 -15 2
-22 -5 -25 -2 -27 33 -1 16 -66 24 -66 8 0 -5 5 -6 10 -3 6 3 10 1 10 -6 0 -6
-8 -9 -19 -6 -12 3 -27 -3 -37 -14 -10 -11 -12 -19 -6 -19 7 0 12 5 12 11 0 8
5 8 15 -1 10 -9 15 -9 15 -1 0 6 4 11 9 11 6 0 8 -10 6 -21 -5 -24 -15 -38
-15 -21 0 7 -11 5 -30 -6 -27 -15 -28 -18 -13 -29 9 -7 12 -13 6 -13 -6 0 -20
-3 -30 -6 -13 -4 -15 -3 -4 4 10 7 11 14 1 32 -13 25 -20 15 104 152 43 49 83
88 89 88 6 0 0 -12 -14 -27z m116 9 c-3 -3 -15 -7 -27 -9 -17 -3 -19 -1 -9 11
7 8 19 12 27 9 8 -3 12 -8 9 -11z m-10 -21 c3 -5 1 -12 -5 -16 -5 -3 -10 1
-10 9 0 18 6 21 15 7z m-55 -51 c0 -5 -6 -10 -14 -10 -7 0 -19 -6 -25 -14 -7
-8 -21 -12 -32 -9 -15 4 -17 8 -8 19 8 9 16 11 23 5 7 -6 18 -4 30 5 23 17 26
17 26 4z m-115 -140 c4 -6 1 -9 -7 -8 -7 2 -12 -2 -11 -9 1 -6 -4 -17 -12 -23
-17 -14 -20 -30 -4 -30 5 0 8 4 4 9 -3 5 -1 12 5 16 6 3 9 -4 8 -18 -2 -25
-16 -28 -50 -13 -10 5 -15 13 -12 18 4 6 10 5 16 -3 6 -10 8 -2 6 24 -3 31 -1
36 13 32 10 -3 20 -1 24 5 8 13 12 13 20 0z m-100 -91 c0 -17 -7 -34 -16 -39
-11 -7 -16 -5 -16 6 0 9 6 13 14 9 10 -3 13 1 8 15 -5 16 0 40 8 40 1 0 2 -14
2 -31z m1870 -1260 c63 -96 107 -223 108 -314 1 -74 -24 -190 -52 -240 -9 -16
-19 -41 -22 -55 -4 -15 -6 -4 -6 30 0 30 2 49 4 42 3 -6 9 -10 13 -7 5 3 7 12
3 21 -3 8 3 21 13 29 18 13 18 14 -3 8 -12 -3 -24 -12 -26 -22 -3 -9 -5 7 -5
34 -1 39 1 45 8 28 11 -27 30 -30 30 -5 0 14 -2 15 -10 2 -8 -12 -10 -11 -10
6 0 11 -5 25 -10 30 -13 13 4 64 21 64 6 0 9 9 6 20 -3 10 1 27 9 37 18 24 18
53 -1 53 -8 0 -15 -6 -15 -12 0 -9 -4 -8 -10 2 -5 8 -10 22 -10 30 0 13 1 13
11 0 8 -11 12 -12 16 -2 2 6 8 10 13 7 4 -3 5 5 2 17 -5 19 -7 20 -10 6 -2
-10 -8 -18 -13 -18 -12 0 -12 27 1 35 6 3 10 12 9 18 0 9 -2 9 -6 0 -11 -30
-49 4 -44 40 1 4 -3 7 -9 7 -5 0 -10 -4 -10 -10 0 -5 -7 -7 -15 -4 -13 5 -14
2 -6 -17 5 -13 12 -61 16 -106 4 -46 10 -83 14 -83 3 0 6 -24 6 -52 0 -29 2
-105 3 -168 2 -115 -17 -282 -38 -330 l-11 -25 6 25 c22 101 25 245 10 454
-25 365 -25 338 -4 333 11 -3 16 0 12 8 -3 10 2 12 19 9 l23 -5 -23 10 c-25
11 -38 10 -34 -2 1 -5 -2 -6 -8 -2 -5 3 -13 0 -16 -9 -3 -8 -12 -12 -19 -9
-10 3 -7 11 12 27 18 16 23 25 14 30 -6 4 -11 4 -10 -1 3 -19 -2 -27 -10 -14
-11 18 -3 43 12 34 6 -4 8 2 4 16 -4 17 -2 21 8 17 9 -3 12 0 8 10 -4 11 -9
12 -17 4 -6 -6 -11 -14 -12 -18 -3 -22 -18 -41 -28 -35 -6 4 -3 -5 6 -19 17
-26 17 -26 -12 -38 -31 -13 -37 -24 -20 -35 6 -4 10 -3 9 2 -3 17 1 24 12 18
7 -5 4 -13 -7 -26 -9 -10 -20 -17 -24 -14 -4 2 -7 -2 -7 -10 0 -8 2 -13 5 -10
9 9 32 -24 26 -39 -9 -23 -24 -20 -19 4 2 11 0 20 -6 20 -10 0 -12 -30 -3 -54
3 -9 11 -13 18 -9 6 4 5 -1 -3 -10 -13 -16 -36 -14 -26 3 3 5 1 11 -5 15 -6 4
-10 -12 -10 -44 0 -62 8 -85 24 -71 9 7 19 4 34 -11 24 -22 25 -25 11 -54 -8
-18 -8 -18 -7 5 2 14 -2 26 -7 28 -6 1 -10 -6 -10 -15 0 -10 -4 -21 -10 -25
-6 -5 -5 -8 3 -8 7 0 11 -4 8 -9 -11 -17 5 -40 22 -33 15 5 16 4 2 -13 -12
-15 -12 -17 -1 -10 9 5 19 2 28 -11 12 -17 14 -10 12 59 -3 114 7 104 14 -15
3 -57 2 -107 -3 -112 -6 -6 -2 -15 8 -22 15 -12 15 -15 2 -24 -8 -5 -10 -10
-5 -10 6 0 11 -17 12 -38 1 -35 0 -33 -18 21 -11 32 -33 79 -49 106 -71 114
-93 241 -65 366 24 108 78 233 102 235 0 0 22 -32 48 -71z m-48 -226 c3 -49 1
-84 -3 -80 -5 5 -9 28 -9 53 0 24 -4 44 -10 44 -5 0 -10 -4 -10 -9 0 -5 -3
-12 -7 -16 -3 -4 -5 1 -3 12 2 10 4 24 4 31 1 7 6 10 11 7 16 -10 12 7 -7 27
-9 10 -11 18 -5 18 6 0 13 -6 15 -12 3 -7 6 -4 6 6 1 11 4 17 7 13 3 -3 8 -45
11 -94z m56 72 c-3 -8 -1 -15 5 -15 20 0 22 -33 3 -51 -19 -18 -19 -17 -23 32
-1 28 -1 52 1 55 9 8 20 -8 14 -21z m-1847 -126 c1 -31 1 -31 -11 -9 -9 17
-14 19 -18 9 -3 -8 -6 -5 -6 9 -1 15 5 22 17 22 12 0 17 -9 18 -31z m1902 7
c12 4 13 3 5 -3 -7 -5 -14 -18 -15 -28 -2 -11 -7 -21 -11 -22 -21 -8 -27 1
-27 38 0 36 2 39 15 25 9 -8 23 -13 33 -10z m-153 -6 c3 -5 -1 -10 -10 -10 -9
0 -13 5 -10 10 3 6 8 10 10 10 2 0 7 -4 10 -10z m-41 -30 c-6 -6 -10 -2 -11
12 -2 16 1 18 10 9 7 -7 8 -14 1 -21z m-1645 -46 c-8 -9 -16 -11 -22 -5 -5 5
-2 16 10 28 13 14 19 15 21 5 2 -7 -2 -20 -9 -28z m1716 26 c3 -5 1 -10 -4
-10 -6 0 -11 5 -11 10 0 6 2 10 4 10 3 0 8 -4 11 -10z m-1725 -60 c0 -5 -2
-10 -4 -10 -3 0 -8 5 -11 10 -3 6 -1 10 4 10 6 0 11 -4 11 -10z m1710 -50 c0
-5 -4 -10 -9 -10 -6 0 -13 5 -16 10 -3 6 1 10 9 10 9 0 16 -4 16 -10z m-1519
-131 c9 -17 8 -20 -2 -14 -9 6 -11 3 -6 -8 3 -9 3 -19 -2 -21 -4 -3 -8 0 -8 7
0 7 -2 17 -3 22 -3 14 -1 35 5 35 2 0 9 -10 16 -21z m-270 -61 c11 -21 11 -22
-4 -9 -10 7 -17 17 -17 22 0 15 9 10 21 -13z m2089 -193 c0 -2 -10 -9 -22 -15
-22 -11 -22 -10 -4 4 21 17 26 19 26 11z m-346 -254 c3 -5 -3 -11 -15 -14 -16
-4 -18 -3 -8 9 13 16 16 17 23 5z m-83 -93 c-22 -24 -51 -60 -66 -82 -14 -21
-33 -45 -41 -53 -8 -8 -14 -21 -14 -29 0 -8 -7 -14 -16 -14 -9 0 -12 5 -8 13
13 20 116 150 146 182 15 17 28 35 29 40 0 6 3 4 6 -2 2 -7 -13 -32 -36 -55z
m-210 -329 c-33 -73 -51 -150 -51 -214 0 -24 -5 -47 -10 -50 -13 -8 -5 67 16
164 15 67 66 191 71 174 2 -5 -10 -38 -26 -74z m4 -564 c20 -47 60 -101 123
-166 24 -26 40 -49 34 -53 -10 -6 -100 80 -94 90 2 3 -5 13 -15 22 -27 24 -73
124 -94 206 -27 100 -22 116 6 21 12 -44 31 -98 40 -120z"/>
<path d="M4105 7830 c26 -11 35 -12 35 -2 0 4 -12 8 -27 9 -24 1 -25 1 -8 -7z"/>
<path d="M3953 7820 c2 -11 19 -15 58 -17 30 -1 45 1 34 4 -11 3 -24 9 -29 14
-15 13 -46 11 -46 -3 0 -9 -4 -8 -11 2 -9 13 -10 13 -6 0z"/>
<path d="M3790 7809 c-11 -8 -7 -9 18 -6 24 3 32 0 28 -10 -3 -7 -1 -13 4 -13
6 0 10 9 10 20 0 22 -34 27 -60 9z"/>
<path d="M4348 7813 c7 -3 16 -2 19 1 4 3 -2 6 -13 5 -11 0 -14 -3 -6 -6z"/>
<path d="M4358 7793 c7 -3 16 -2 19 1 4 3 -2 6 -13 5 -11 0 -14 -3 -6 -6z"/>
<path d="M3555 7760 c-4 -6 -10 -8 -15 -5 -14 8 -38 -5 -43 -24 -3 -14 0 -17
15 -13 13 3 16 7 8 12 -8 5 -7 9 4 13 8 3 18 2 21 -2 3 -5 15 -7 27 -3 14 3
19 2 14 -6 -4 -7 -2 -12 3 -12 18 0 12 29 -8 40 -14 7 -22 7 -26 0z"/>
<path d="M4650 7749 c0 -5 5 -7 10 -4 6 3 10 8 10 11 0 2 -4 4 -10 4 -5 0 -10
-5 -10 -11z"/>
<path d="M3450 7730 c0 -5 5 -10 11 -10 5 0 7 5 4 10 -3 6 -8 10 -11 10 -2 0
-4 -4 -4 -10z"/>
<path d="M4705 7730 c-3 -5 -1 -10 4 -10 6 0 11 5 11 10 0 6 -2 10 -4 10 -3 0
-8 -4 -11 -10z"/>
<path d="M4760 7736 c0 -2 9 -6 20 -9 11 -3 18 -1 14 4 -5 9 -34 13 -34 5z"/>
<path d="M3544 7715 c-18 -14 -18 -14 4 -8 12 3 22 9 22 14 0 12 -3 11 -26 -6z"/>
<path d="M4785 7700 c-3 -6 1 -7 9 -4 18 7 21 14 7 14 -6 0 -13 -4 -16 -10z"/>
<path d="M3269 7663 c-13 -16 -12 -17 3 -5 19 15 42 7 32 -10 -4 -7 -2 -8 4
-4 14 8 4 36 -13 36 -7 0 -19 -8 -26 -17z"/>
<path d="M3115 7590 c-7 -12 2 -12 30 0 19 8 19 9 -2 9 -12 1 -25 -3 -28 -9z"/>
<path d="M3187 7588 c7 -8 10 -18 6 -21 -3 -4 -1 -7 5 -7 21 0 21 16 -1 30
-19 12 -21 11 -10 -2z"/>
<path d="M3260 7579 c0 -5 5 -7 10 -4 6 3 10 8 10 11 0 2 -4 4 -10 4 -5 0 -10
-5 -10 -11z"/>
<path d="M5067 7583 c-21 -6 -17 -27 6 -31 11 -2 15 3 14 17 -1 12 -1 20 -2
20 0 -1 -8 -3 -18 -6z"/>
<path d="M5144 7575 c-3 -8 -4 -20 -2 -27 3 -7 7 -1 10 15 6 29 1 36 -8 12z"/>
<path d="M3129 7564 c-6 -8 -9 -18 -5 -22 4 -4 13 1 20 10 11 15 13 15 22 1 8
-13 10 -13 10 4 0 23 -30 28 -47 7z"/>
<path d="M5167 7574 c-10 -11 -8 -24 4 -24 5 0 7 5 4 10 -3 6 -2 10 4 10 5 0
12 -5 14 -10 3 -6 4 -5 3 2 -3 14 -20 21 -29 12z"/>
<path d="M3051 7534 c0 -11 3 -14 6 -6 3 7 2 16 -1 19 -3 4 -6 -2 -5 -13z"/>
<path d="M3073 7525 c0 -7 6 -11 14 -8 7 3 13 0 13 -6 0 -6 5 -11 10 -11 18 0
10 17 -13 27 -18 9 -24 8 -24 -2z"/>
<path d="M5087 7529 c7 -7 15 -10 18 -7 3 3 -2 9 -12 12 -14 6 -15 5 -6 -5z"/>
<path d="M2981 7506 c-10 -12 -8 -13 8 -9 12 3 21 1 21 -6 0 -8 4 -8 14 1 10
9 11 15 2 20 -17 12 -32 9 -45 -6z"/>
<path d="M5247 7505 c18 -13 33 -11 33 4 0 5 -11 9 -25 9 -23 0 -24 -2 -8 -13z"/>
<path d="M5193 7503 c4 -3 4 -10 0 -16 -4 -7 0 -8 12 -4 9 4 23 3 30 -3 8 -7
12 -5 12 5 0 8 -8 15 -18 15 -9 0 -23 2 -31 3 -7 2 -10 2 -5 0z"/>
<path d="M3080 7471 c0 -25 6 -27 13 -6 4 8 2 17 -3 20 -6 4 -10 -3 -10 -14z"/>
<path d="M2976 7464 c-23 -23 -20 -30 4 -9 11 10 20 20 20 22 0 7 -9 2 -24
-13z"/>
<path d="M5170 7462 c0 -5 7 -9 15 -9 8 0 12 4 9 9 -3 4 -9 8 -15 8 -5 0 -9
-4 -9 -8z"/>
<path d="M2995 7450 c-3 -5 5 -12 17 -16 20 -6 20 -8 5 -19 -16 -12 -16 -13 1
-17 18 -5 21 5 13 43 -2 12 -30 19 -36 9z"/>
<path d="M5230 7450 c0 -5 5 -10 10 -10 6 0 10 5 10 10 0 6 -4 10 -10 10 -5 0
-10 -4 -10 -10z"/>
<path d="M2981 7384 c0 -11 3 -14 6 -6 3 7 2 16 -1 19 -3 4 -6 -2 -5 -13z"/>
<path d="M2927 7333 c-10 -9 -9 -23 1 -23 5 0 9 7 9 15 0 17 -1 18 -10 8z"/>
<path d="M2890 7306 c0 -2 7 -9 15 -16 13 -11 14 -10 9 4 -5 14 -24 23 -24 12z"/>
<path d="M2725 7190 c-3 -5 -5 -10 -3 -11 33 -8 38 -7 27 7 -14 17 -16 17 -24
4z"/>
<path d="M4453 5748 c0 -7 6 -19 14 -26 7 -7 13 -9 13 -4 0 4 -6 16 -13 26
-10 14 -14 15 -14 4z"/>
<path d="M4540 5420 c0 -12 -5 -17 -14 -14 -12 4 -31 -34 -22 -43 12 -12 45
-9 50 4 5 12 1 14 -14 10 -11 -3 -18 -1 -14 4 3 5 12 9 20 9 8 0 14 10 14 25
0 14 -4 25 -10 25 -5 0 -10 -9 -10 -20z"/>
<path d="M4336 5415 c-3 -8 -1 -15 4 -15 6 0 10 7 10 15 0 8 -2 15 -4 15 -2 0
-6 -7 -10 -15z"/>
<path d="M4496 5475 c-3 -8 -1 -15 4 -15 6 0 10 7 10 15 0 8 -2 15 -4 15 -2 0
-6 -7 -10 -15z"/>
<path d="M2720 7054 c0 -8 5 -12 10 -9 6 4 8 11 5 16 -9 14 -15 11 -15 -7z"/>
<path d="M2471 6952 c-6 -12 -6 -23 0 -33 9 -12 10 -12 6 1 -2 8 3 20 11 26
10 7 12 13 4 18 -6 3 -15 -2 -21 -12z"/>
<path d="M2465 6870 c-9 -10 -22 -18 -29 -17 -6 1 -10 -8 -9 -21 2 -16 -1 -21
-10 -16 -6 4 -9 4 -5 -1 4 -4 3 -14 -2 -20 -8 -9 -6 -14 5 -18 8 -4 14 -1 12
5 -1 6 4 13 11 15 7 3 11 -1 10 -9 -2 -7 3 -12 10 -10 8 1 11 -2 7 -8 -3 -5
-16 -10 -28 -11 -21 0 -21 -1 -2 -8 11 -5 24 -6 29 -3 5 3 6 0 2 -6 -4 -7 -15
-12 -25 -12 -10 0 -28 -12 -42 -27 -13 -14 -19 -23 -12 -19 6 3 16 -2 22 -11
6 -10 11 -13 11 -7 0 5 -5 15 -10 20 -8 8 -6 15 6 25 16 12 17 12 11 -3 -4
-12 -2 -15 8 -11 8 3 12 9 9 14 -3 5 2 6 10 3 11 -4 16 0 16 11 0 9 4 14 9 11
15 -10 29 18 20 39 -7 17 -8 16 -8 -8 -1 -17 -5 -26 -12 -22 -6 4 -8 14 -5 22
4 9 -3 23 -14 33 l-20 18 20 5 c12 3 20 13 20 26 0 12 5 21 10 21 6 0 10 5 10
10 0 16 -15 12 -35 -10z"/>
<path d="M2483 6823 c-20 -8 -15 -22 6 -18 14 3 20 -4 25 -27 l6 -30 19 23
c20 25 17 53 -5 45 -7 -3 -16 -1 -19 4 -7 11 -13 11 -32 3z"/>
<path d="M2569 6820 c-1 -5 -2 -18 -3 -27 -2 -23 -47 -84 -57 -77 -12 7 -57
-17 -64 -34 -4 -12 -1 -11 17 3 13 11 17 13 11 5 -19 -21 -16 -32 7 -25 16 5
20 2 20 -15 0 -12 -4 -19 -9 -15 -5 3 -13 0 -17 -6 -4 -8 -3 -9 4 -5 7 4 12 1
12 -9 0 -10 -5 -13 -12 -9 -8 5 -9 2 -5 -10 4 -10 7 -20 7 -22 0 -3 5 -2 10 1
6 4 17 1 25 -5 8 -7 22 -10 30 -6 9 3 14 2 11 -3 -3 -5 1 -12 10 -15 23 -9 28
-2 10 13 -8 7 -12 20 -9 29 3 10 2 13 -4 6 -14 -18 -42 -24 -50 -11 -12 19
-13 46 -3 52 6 4 8 11 5 16 -9 14 5 49 18 46 7 -1 11 8 11 21 -2 25 8 28 24 9
8 -9 3 -18 -19 -32 -31 -21 -39 -38 -14 -29 20 8 19 -5 -2 -28 -15 -17 -15
-18 8 -18 14 0 30 5 37 12 9 9 12 9 12 0 0 -6 7 -9 17 -5 12 5 14 3 8 -7 -5
-9 -4 -11 3 -6 7 4 12 15 12 25 0 14 -6 17 -25 13 -15 -2 -25 0 -25 7 0 7 6
11 13 10 32 -4 46 2 44 20 0 11 -6 19 -12 18 -5 -1 -10 14 -10 34 0 32 -2 35
-18 25 -9 -6 -13 -12 -7 -14 13 -5 13 -52 1 -52 -6 0 -8 9 -6 20 2 11 0 18 -5
15 -4 -3 -7 3 -5 12 2 10 4 24 4 31 1 7 7 10 14 7 6 -4 3 1 -8 10 -14 12 -16
16 -5 15 8 -1 22 -2 30 -1 13 1 13 2 0 11 -20 13 -40 13 -41 0z m-64 -119 c3
-5 2 -12 -3 -15 -5 -3 -9 1 -9 9 0 17 3 19 12 6z m123 -17 c4 -4 0 -5 -9 -1
-9 3 -26 -1 -38 -9 -17 -13 -21 -13 -21 -1 0 7 2 16 5 19 7 7 55 1 63 -8z
m-58 -44 c0 -5 -4 -10 -10 -10 -5 0 -10 5 -10 10 0 6 5 10 10 10 6 0 10 -4 10
-10z"/>
<path d="M2620 6751 c0 -5 5 -13 10 -16 6 -3 10 -2 10 4 0 5 -4 13 -10 16 -5
3 -10 2 -10 -4z"/>
<path d="M2390 6665 c0 -5 10 -21 21 -35 13 -17 17 -18 10 -5 -17 33 -31 51
-31 40z"/>
<path d="M2370 6640 c0 -5 -8 -10 -17 -11 -11 0 -13 -3 -5 -6 6 -2 12 -9 12
-14 0 -6 -4 -8 -9 -5 -5 3 -11 -1 -15 -9 -5 -14 31 -48 43 -41 3 2 7 -7 7 -20
1 -13 -2 -24 -7 -24 -5 0 -8 3 -8 8 4 22 -3 34 -15 29 -8 -3 -16 -1 -19 6 -2
8 -5 8 -11 -1 -4 -7 -2 -12 4 -12 6 0 8 -5 4 -12 -5 -8 0 -7 11 2 17 14 18 13
12 -3 -5 -13 0 -20 20 -28 19 -7 29 -7 31 0 2 6 8 9 13 5 5 -3 9 0 9 6 0 7 -7
9 -16 6 -11 -4 -15 -2 -11 7 3 8 1 20 -3 28 -5 8 -5 16 1 20 7 4 5 19 -5 43
-15 35 -26 46 -26 26z m20 -31 c0 -5 -4 -9 -10 -9 -5 0 -10 7 -10 16 0 8 5 12
10 9 6 -3 10 -10 10 -16z m3 -30 c-8 -8 -16 -8 -30 0 -16 9 -14 10 12 11 21 0
26 -3 18 -11z"/>
<path d="M2440 6640 c0 -5 5 -10 10 -10 6 0 10 5 10 10 0 6 -4 10 -10 10 -5 0
-10 -4 -10 -10z"/>
<path d="M2451 6604 c0 -11 3 -14 6 -6 3 7 2 16 -1 19 -3 4 -6 -2 -5 -13z"/>
<path d="M2515 6600 c-3 -5 -1 -10 4 -10 6 0 11 5 11 10 0 6 -2 10 -4 10 -3 0
-8 -4 -11 -10z"/>
<path d="M2580 6589 c0 -5 5 -7 10 -4 6 4 10 -8 10 -28 0 -35 -23 -57 -36 -36
-3 6 -12 8 -20 5 -8 -3 -11 0 -7 10 6 17 -5 18 -40 2 -32 -15 -34 -24 -7 -38
11 -6 18 -15 15 -20 -6 -9 -37 -6 -55 5 -12 7 -40 -12 -40 -27 0 -5 7 -2 16 6
16 16 34 13 34 -5 0 -6 -4 -8 -8 -5 -5 3 -9 -1 -9 -8 0 -8 7 -13 16 -11 9 1
15 8 13 15 -1 6 2 8 9 5 6 -4 19 2 30 14 12 13 15 21 7 21 -6 0 -3 6 7 14 17
12 23 12 47 0 27 -14 27 -14 33 23 4 21 9 46 12 56 3 12 -1 17 -16 17 -12 0
-21 -5 -21 -11z m-57 -61 c3 -8 -5 -14 -20 -14 -22 -2 -23 -1 -6 12 22 17 20
16 26 2z"/>
<path d="M2443 6525 c0 -13 3 -22 8 -20 9 6 8 45 -2 45 -4 0 -6 -11 -6 -25z"/>
<path d="M2322 6502 c-10 -7 -8 -13 7 -26 12 -11 21 -14 26 -7 3 6 -1 11 -9
11 -9 0 -16 5 -16 11 0 5 5 7 12 3 7 -4 8 -3 4 4 -8 14 -8 14 -24 4z"/>
<path d="M2364 6481 c3 -5 -1 -14 -9 -21 -8 -7 -15 -9 -15 -5 0 4 -7 2 -15 -5
-21 -18 -19 -33 5 -27 11 3 18 1 15 -3 -3 -5 0 -12 6 -16 8 -4 9 -3 5 4 -4 7
-1 12 9 12 20 0 36 41 23 58 -12 14 -32 17 -24 3z"/>
<path d="M2531 6462 c-6 -11 -7 -23 -3 -27 4 -5 -1 -5 -12 -1 -20 7 -46 -9
-46 -28 0 -8 3 -8 8 1 8 13 44 13 53 0 3 -5 9 1 12 12 3 12 0 21 -6 21 -7 0
-4 7 6 14 11 8 14 17 8 20 -5 4 -15 -2 -20 -12z"/>
<path d="M4590 6476 c0 -2 30 -18 67 -35 90 -42 137 -94 162 -177 20 -62 21
-92 21 -619 1 -545 1 -555 20 -543 12 8 15 15 8 19 -7 5 -12 167 -14 537 -2
333 -7 548 -14 578 -21 92 -88 176 -170 213 -34 15 -18 16 294 16 l331 0 -58
-38 c-65 -44 -99 -94 -121 -182 -14 -50 -16 -134 -14 -550 l2 -490 6 510 c4
324 10 521 17 540 41 116 101 174 218 211 34 11 -22 13 -357 13 -219 1 -398
-1 -398 -3z"/>
<path d="M6350 6471 c8 -5 169 -8 357 -7 189 0 343 1 343 0 0 -1 -22 -15 -49
-32 -27 -17 -64 -50 -81 -73 -63 -88 -60 -13 -58 -1470 l3 -1325 25 -49 c25
-47 117 -135 142 -135 6 0 -13 17 -43 38 -40 28 -61 53 -84 97 l-30 59 -3
1310 c-2 888 1 1327 8 1361 20 97 106 186 210 219 40 13 4 14 -355 15 -220 0
-393 -3 -385 -8z"/>
<path d="M2300 6460 c0 -5 5 -10 10 -10 6 0 10 5 10 10 0 6 -4 10 -10 10 -5 0
-10 -4 -10 -10z"/>
<path d="M2437 6409 c7 -7 15 -10 18 -7 3 3 -2 9 -12 12 -14 6 -15 5 -6 -5z"/>
<path d="M2391 6400 c-9 -5 -11 -17 -7 -35 5 -21 3 -28 -13 -32 -18 -5 -19 -7
-5 -20 9 -10 24 -13 40 -9 22 6 23 8 9 22 -17 18 -20 34 -5 34 6 0 9 6 8 13
-2 6 3 11 10 10 18 -4 15 5 -6 16 -10 5 -24 6 -31 1z m9 -80 c0 -5 -4 -10 -10
-10 -5 0 -10 5 -10 10 0 6 5 10 10 10 6 0 10 -4 10 -10z"/>
<path d="M2300 6385 c0 -9 6 -12 17 -8 12 5 14 3 8 -7 -5 -9 -4 -11 4 -6 9 6
9 11 0 22 -15 18 -29 18 -29 -1z"/>
<path d="M2493 6380 c-1 -11 2 -20 5 -20 4 0 8 9 9 20 1 11 -2 20 -5 20 -4 0
-8 -9 -9 -20z"/>
<path d="M2455 6380 c3 -5 8 -10 11 -10 2 0 4 5 4 10 0 6 -5 10 -11 10 -5 0
-7 -4 -4 -10z"/>
<path d="M2356 6364 c-4 -9 -4 -19 -1 -22 2 -3 7 3 11 12 4 9 4 19 1 22 -2 3
-7 -3 -11 -12z"/>
<path d="M2546 6362 c-2 -4 -1 -14 3 -21 6 -10 10 -9 14 3 6 16 -8 32 -17 18z"/>
<path d="M2493 6344 c-7 -3 -9 -12 -6 -20 3 -9 -1 -14 -13 -14 -9 0 -15 -3
-11 -6 9 -10 48 7 41 18 -4 6 0 14 7 19 15 9 2 11 -18 3z"/>
<path d="M2316 6325 c4 -8 7 -15 9 -15 2 0 5 7 9 15 3 9 0 15 -9 15 -9 0 -12
-6 -9 -15z"/>
<path d="M2440 6313 c0 -10 4 -14 8 -8 4 6 11 13 16 18 5 4 2 7 -7 7 -10 0
-17 -8 -17 -17z"/>
<path d="M2529 6311 c9 -6 10 -11 2 -15 -6 -4 -11 -17 -10 -29 0 -19 2 -19 11
6 6 16 14 24 21 20 7 -4 6 1 -2 10 -7 9 -19 17 -25 17 -6 0 -5 -4 3 -9z"/>
<path d="M2555 6278 l-20 -21 23 12 c12 6 22 16 22 21 0 13 -2 12 -25 -12z"/>
<path d="M2442 6273 c-17 -30 -15 -37 4 -19 8 9 14 22 11 29 -2 7 -8 4 -15
-10z"/>
<path d="M2480 6280 c0 -6 7 -10 15 -10 8 0 15 2 15 4 0 2 -7 6 -15 10 -8 3
-15 1 -15 -4z"/>
<path d="M2335 6271 c-3 -5 -2 -12 3 -15 5 -3 9 1 9 9 0 17 -3 19 -12 6z"/>
<path d="M2389 6258 c-5 -18 -6 -38 -1 -34 7 8 12 36 6 36 -2 0 -4 -1 -5 -2z"/>
<path d="M2507 6234 c-8 -8 3 -34 15 -34 7 0 6 5 -1 13 -6 8 -8 17 -4 20 3 4
4 7 1 7 -2 0 -7 -3 -11 -6z"/>
<path d="M2444 6195 c0 -21 3 -30 8 -22 10 16 10 44 0 51 -4 2 -8 -11 -8 -29z"/>
<path d="M2566 6208 c5 -7 2 -9 -7 -6 -8 3 -21 -2 -29 -10 -13 -14 -12 -15 4
-9 12 5 23 1 32 -10 12 -16 13 -15 14 15 0 17 -5 32 -11 32 -5 0 -7 -5 -3 -12z"/>
<path d="M2325 6182 c-3 -8 -3 -17 0 -20 3 -3 5 0 5 8 0 9 4 10 13 2 10 -8 13
-6 13 7 0 21 -23 24 -31 3z"/>
<path d="M2474 6172 c3 -6 -2 -15 -11 -21 -10 -6 -13 -11 -7 -11 20 0 37 27
23 36 -7 4 -9 3 -5 -4z"/>
<path d="M2540 6152 c-8 -4 -16 -14 -18 -22 -3 -11 2 -10 17 4 28 26 29 30 1
18z"/>
<path d="M2530 6090 c-11 -7 -11 -10 -2 -10 9 0 10 -5 3 -19 -8 -14 -7 -20 3
-24 8 -3 17 1 20 9 3 9 2 12 -4 9 -7 -4 -9 3 -6 19 3 14 4 26 3 26 -1 0 -9 -5
-17 -10z"/>
<path d="M2380 6065 c-10 -12 -10 -15 1 -15 11 0 11 -3 -1 -11 -12 -8 -12 -10
-1 -7 8 2 21 14 29 26 13 19 13 22 -1 22 -8 0 -20 -7 -27 -15z"/>
<path d="M2480 6068 c0 -4 7 -8 15 -8 8 0 15 4 15 8 0 5 -7 9 -15 9 -8 0 -15
-4 -15 -9z"/>
<path d="M2446 6062 c-3 -5 1 -9 9 -9 8 0 12 4 9 9 -3 4 -7 8 -9 8 -2 0 -6 -4
-9 -8z"/>
<path d="M2495 6023 c-3 -9 -1 -21 5 -27 8 -8 9 -6 4 8 -6 16 -4 18 9 13 9 -3
17 -2 17 2 0 17 -28 20 -35 4z"/>
<path d="M2395 6020 c-3 -5 -1 -10 4 -10 6 0 11 5 11 10 0 6 -2 10 -4 10 -3 0
-8 -4 -11 -10z"/>
<path d="M2390 5990 c8 -5 22 -10 30 -10 13 0 13 1 0 10 -8 5 -22 10 -30 10
-13 0 -13 -1 0 -10z"/>
<path d="M2540 5989 c0 -5 5 -7 10 -4 6 3 10 8 10 11 0 2 -4 4 -10 4 -5 0 -10
-5 -10 -11z"/>
<path d="M2473 5976 c15 -7 24 -16 20 -21 -5 -4 -2 -5 6 0 12 7 11 10 -4 22
-11 7 -26 13 -34 12 -9 0 -4 -6 12 -13z"/>
<path d="M2507 5946 c-9 -20 -12 -36 -7 -36 6 0 10 6 10 14 0 8 11 17 25 20
14 4 25 11 25 17 0 6 -6 9 -14 6 -8 -3 -16 -1 -18 4 -2 6 -11 -6 -21 -25z"/>
<path d="M2345 5960 c-3 -5 -1 -10 4 -10 6 0 11 5 11 10 0 6 -2 10 -4 10 -3 0
-8 -4 -11 -10z"/>
<path d="M2382 5961 c-10 -6 -10 -10 3 -21 13 -11 15 -9 15 9 0 24 0 24 -18
12z"/>
<path d="M2435 5960 c-3 -5 1 -10 10 -10 9 0 13 5 10 10 -3 6 -8 10 -10 10 -2
0 -7 -4 -10 -10z"/>
<path d="M2586 5955 c4 -10 -4 -27 -20 -44 -26 -27 -26 -28 -5 -27 13 1 23 -6
24 -16 2 -12 -2 -15 -13 -11 -10 4 -5 -6 12 -23 l28 -29 -28 -12 -29 -12 32
-12 c17 -7 34 -21 37 -32 4 -18 4 -18 -14 -2 -10 9 -23 14 -29 11 -5 -3 -11
-1 -13 6 -3 7 -7 5 -11 -6 -6 -15 -3 -17 18 -12 17 4 25 2 25 -7 0 -17 -36
-19 -50 -2 -16 19 -19 48 -7 63 7 8 5 12 -6 12 -11 0 -14 -10 -13 -37 1 -27
-3 -37 -16 -41 -10 -2 -15 -8 -12 -13 3 -5 0 -9 -5 -9 -6 0 -11 -5 -11 -12 0
-9 3 -9 12 0 9 9 15 9 27 -1 14 -11 14 -10 2 6 -12 15 -11 17 5 16 11 0 28 -4
39 -8 16 -6 17 -9 5 -17 -21 -13 -21 -52 -1 -50 9 0 15 -5 14 -11 -2 -7 3 -12
10 -10 6 1 11 -6 9 -15 -2 -10 1 -18 7 -18 5 0 8 8 6 18 -2 9 -4 25 -4 35 -1
9 -7 16 -13 15 -7 -2 -12 3 -10 10 1 8 -2 11 -8 7 -5 -3 -10 -2 -10 3 0 19 14
21 37 7 13 -9 23 -14 24 -13 12 43 4 128 -12 128 -6 0 -7 -5 -3 -12 4 -7 3 -8
-4 -4 -9 5 -8 12 1 28 8 13 8 22 2 24 -6 2 -9 23 -7 46 4 35 2 40 -12 35 -9
-4 -16 -2 -16 3 0 6 5 10 10 10 13 0 13 37 0 45 -6 3 -7 -1 -4 -10z m39 -255
c-3 -5 -14 -10 -23 -9 -14 0 -13 2 3 9 27 11 27 11 20 0z"/>
<path d="M2418 5938 c10 -13 10 -17 0 -20 -8 -3 -6 -7 5 -11 9 -3 16 -3 14 1
-1 4 3 8 8 9 6 0 9 -3 8 -8 -2 -5 2 -9 7 -9 6 0 10 9 10 19 0 13 -6 18 -17 16
-10 -1 -25 3 -33 9 -13 9 -13 9 -2 -6z"/>
<path d="M2339 5927 c7 -7 14 -8 21 -1 6 6 2 10 -12 11 -16 2 -18 -1 -9 -10z"/>
<path d="M2531 5931 c-10 -6 -9 -10 3 -14 8 -3 18 -2 21 3 8 13 -9 20 -24 11z"/>
<path d="M2301 5903 c0 -10 4 -36 8 -58 9 -40 9 -39 10 18 0 32 -3 57 -9 57
-5 0 -10 -8 -9 -17z"/>
<path d="M2378 5898 c10 -13 10 -17 0 -21 -9 -4 -9 -6 -1 -6 20 -2 24 16 5 30
-15 13 -16 12 -4 -3z"/>
<path d="M2336 5872 c-3 -5 1 -9 9 -9 8 0 15 4 15 9 0 4 -4 8 -9 8 -6 0 -12
-4 -15 -8z"/>
<path d="M2497 5868 c-12 -9 -14 -17 -7 -28 8 -13 10 -13 10 2 0 9 5 20 12 24
7 4 8 3 4 -4 -4 -7 -2 -12 3 -12 6 0 11 7 11 15 0 18 -11 19 -33 3z"/>
<path d="M2382 5853 c-6 -2 -10 -8 -7 -13 3 -5 1 -20 -5 -34 -5 -14 -6 -26 -2
-26 4 0 13 18 19 40 5 22 10 40 9 39 -1 0 -7 -3 -14 -6z"/>
<path d="M2532 5839 c-8 -12 -9 -18 -3 -14 6 3 11 1 11 -5 0 -6 5 -8 10 -5 6
3 10 2 10 -3 0 -5 7 -9 15 -9 11 0 12 4 4 14 -6 7 -18 13 -25 13 -8 0 -11 6
-8 15 9 22 1 18 -14 -6z"/>
<path d="M2340 5835 c-11 -13 -11 -18 0 -28 10 -9 11 -9 5 2 -4 8 -2 17 6 22
7 4 11 11 8 14 -4 3 -12 -2 -19 -10z"/>
<path d="M2410 5841 c0 -6 4 -13 10 -16 6 -3 7 1 4 9 -7 18 -14 21 -14 7z"/>
<path d="M2450 5814 c0 -8 5 -12 10 -9 6 4 8 11 5 16 -9 14 -15 11 -15 -7z"/>
<path d="M2400 5802 c0 -12 19 -26 26 -19 2 2 -2 10 -11 17 -9 8 -15 8 -15 2z"/>
<path d="M2482 5784 c-14 -16 -5 -18 17 -5 7 5 9 11 5 14 -5 3 -15 -1 -22 -9z"/>
<path d="M2330 5770 c0 -11 2 -20 4 -20 2 0 6 9 9 20 3 11 1 20 -4 20 -5 0 -9
-9 -9 -20z"/>
<path d="M2432 5771 c-11 -7 -11 -9 0 -14 9 -3 15 1 15 9 0 8 -1 14 -1 14 -1
0 -7 -4 -14 -9z"/>
<path d="M2363 5759 c13 -8 15 -14 7 -24 -8 -10 -4 -12 20 -9 17 2 28 0 25 -5
-3 -5 -1 -12 4 -15 5 -4 8 2 6 11 -2 10 -4 22 -4 27 -1 5 -7 3 -15 -3 -11 -10
-16 -8 -21 8 -3 12 -14 21 -23 21 -15 -1 -15 -2 1 -11z"/>
<path d="M2489 5758 c-8 -7 -12 -12 -10 -11 2 1 12 -2 21 -7 15 -8 17 -6 13
10 -6 24 -5 23 -24 8z"/>
<path d="M2337 5716 c3 -14 11 -27 18 -30 10 -3 9 3 -2 25 -18 35 -22 37 -16
5z"/>
<path d="M2392 5686 c7 -8 15 -12 17 -11 5 6 -10 25 -20 25 -5 0 -4 -6 3 -14z"/>
<path d="M2430 5642 c0 -5 6 -15 14 -21 12 -10 14 -9 12 5 -3 19 -26 33 -26
16z"/>
<path d="M2476 5642 c-3 -2 -2 -10 1 -18 3 -8 -1 -22 -8 -31 -12 -15 -12 -16
5 -10 15 6 17 4 13 -13 -3 -11 -1 -18 4 -14 5 3 9 1 9 -5 0 -12 30 -2 48 16
11 11 11 13 -3 13 -9 0 -13 5 -10 10 3 6 4 10 0 10 -3 0 -10 -10 -14 -22 -9
-23 -9 -23 -20 6 -7 16 -8 32 -4 35 14 10 12 28 -3 28 -7 0 -16 -2 -18 -5z"/>
<path d="M2620 5639 c0 -5 5 -7 10 -4 6 3 10 8 10 11 0 2 -4 4 -10 4 -5 0 -10
-5 -10 -11z"/>
<path d="M2395 5620 c-3 -5 -1 -10 4 -10 6 0 11 5 11 10 0 6 -2 10 -4 10 -3 0
-8 -4 -11 -10z"/>
<path d="M2370 5589 c0 -5 5 -7 12 -3 8 5 9 2 5 -9 -7 -18 1 -47 12 -47 4 0 5
16 3 35 -3 21 -10 35 -18 35 -8 0 -14 -5 -14 -11z"/>
<path d="M2439 5548 c-7 -13 -16 -26 -22 -29 -16 -11 3 -49 25 -49 20 0 19 1
-3 18 -15 13 -19 21 -11 26 7 4 12 2 12 -3 0 -6 5 -11 10 -11 6 0 10 7 10 16
0 8 -4 12 -10 9 -5 -3 -10 -2 -10 4 0 5 7 14 16 19 11 6 13 12 6 16 -6 4 -16
-4 -23 -16z"/>
<path d="M2675 5550 c-3 -5 -1 -10 4 -10 6 0 11 5 11 10 0 6 -2 10 -4 10 -3 0
-8 -4 -11 -10z"/>
<path d="M2640 5539 c0 -5 5 -7 10 -4 6 3 10 8 10 11 0 2 -4 4 -10 4 -5 0 -10
-5 -10 -11z"/>
<path d="M2473 5527 c0 -9 7 -19 14 -21 8 -4 11 -11 7 -18 -4 -8 -3 -10 2 -5
5 5 9 12 9 15 0 4 4 14 9 22 7 12 6 13 -4 3 -11 -10 -16 -9 -25 4 -11 14 -12
14 -12 0z"/>
<path d="M2550 5474 c0 -13 -3 -14 -14 -5 -12 10 -13 8 -9 -9 4 -14 9 -18 16
-11 5 5 16 7 23 4 16 -6 17 -2 8 21 -8 21 -24 21 -24 0z"/>
<path d="M2500 5447 c0 -7 5 -18 10 -23 14 -14 2 -46 -14 -37 -6 3 -3 -3 7
-15 14 -15 17 -31 14 -56 -3 -25 -1 -36 8 -36 8 0 12 13 10 40 -1 23 2 37 7
34 5 -4 7 -15 5 -26 -4 -14 -1 -18 8 -14 8 3 17 -3 20 -15 4 -10 11 -19 16
-19 6 0 7 4 4 10 -9 15 -15 50 -8 50 3 0 12 -8 19 -17 7 -10 15 -16 17 -13 3
3 -1 13 -8 24 -12 16 -34 24 -82 28 -14 1 -17 11 -6 22 13 13 11 35 -4 40 -8
4 -13 13 -9 21 3 8 1 15 -4 15 -6 0 -10 -6 -10 -13z"/>
<path d="M5334 5429 c-69 -26 -137 -88 -168 -152 -13 -28 -22 -55 -20 -59 4
-6 168 83 189 103 5 5 20 9 35 9 l25 0 -30 -20 c-112 -73 -147 -100 -130 -98
11 2 22 6 25 9 9 10 94 63 105 65 6 0 15 2 21 2 7 1 14 13 16 27 7 35 -31 44
-69 17 -46 -32 -107 -60 -122 -54 -8 2 -11 0 -8 -5 3 -5 -3 -14 -14 -21 -24
-15 -24 -11 1 36 28 51 93 108 149 127 55 20 228 29 321 18 l64 -8 -38 -42
c-21 -24 -43 -40 -49 -36 -6 3 -7 1 -3 -5 8 -14 -106 -109 -171 -142 -40 -21
-66 -26 -152 -28 -66 -3 -107 0 -114 7 -8 8 -3 11 19 12 24 0 26 2 9 8 -11 5
-30 2 -45 -6 -14 -7 -29 -13 -33 -13 -5 0 -20 -9 -34 -20 -14 -11 -29 -17 -34
-14 -5 3 -9 0 -9 -6 0 -6 8 -9 18 -6 83 24 115 28 187 22 141 -11 244 39 395
193 l84 86 -44 7 c-25 3 -108 7 -185 7 -116 0 -149 -3 -191 -20z m51 -129 c-3
-5 -11 -10 -16 -10 -6 0 -7 5 -4 10 3 6 11 10 16 10 6 0 7 -4 4 -10z m-215
-130 c-8 -5 -19 -10 -25 -10 -5 0 -3 5 5 10 8 5 20 10 25 10 6 0 3 -5 -5 -10z"/>
<path d="M2568 5422 c11 -11 20 -14 24 -8 7 11 -9 26 -29 26 -9 0 -7 -6 5 -18z"/>
<path d="M5566 5418 c3 -5 10 -6 15 -3 13 9 11 12 -6 12 -8 0 -12 -4 -9 -9z"/>
<path d="M2550 5385 c0 -8 4 -15 10 -15 5 0 7 7 4 15 -4 8 -8 15 -10 15 -2 0
-4 -7 -4 -15z"/>
<path d="M5367 5394 c-9 -10 22 -36 36 -31 9 4 9 6 0 6 -7 1 -13 8 -13 16 0
15 -12 20 -23 9z"/>
<path d="M2580 5385 c0 -11 49 -52 57 -46 11 8 16 34 4 27 -5 -4 -15 -1 -23 6
-14 13 -38 22 -38 13z"/>
<path d="M2635 5279 c-4 -6 -4 -13 -1 -16 3 -4 6 0 6 7 0 9 9 5 25 -10 13 -12
22 -28 18 -34 -3 -6 0 -5 8 2 18 17 30 15 23 -3 -4 -9 0 -15 7 -15 9 -1 6 -6
-6 -13 -29 -18 -29 -36 0 -31 13 2 27 0 30 -6 4 -6 10 -8 15 -5 4 3 10 -2 14
-10 6 -17 36 -21 36 -5 0 6 -10 15 -22 20 -23 9 -23 9 2 10 20 0 22 2 10 10
-12 8 -12 10 -1 10 8 0 11 3 8 7 -4 3 -18 -3 -30 -15 -27 -25 -37 -20 -37 18
0 28 -32 66 -48 57 -4 -3 -15 3 -22 14 -16 21 -26 24 -35 8z"/>
<path d="M2769 5277 c6 -8 8 -17 4 -20 -3 -4 0 -7 8 -7 12 0 12 -2 -1 -10 -9
-6 -17 -5 -22 3 -4 7 -6 3 -5 -10 0 -12 5 -19 9 -17 4 3 8 -1 8 -8 0 -8 5 -8
16 4 20 20 10 78 -13 78 -12 0 -13 -3 -4 -13z"/>
<path d="M2561 5274 c-1 -6 6 -17 14 -24 8 -7 15 -19 15 -27 0 -8 5 -11 11 -8
7 5 5 13 -5 24 -9 10 -13 21 -9 26 5 4 3 5 -4 2 -6 -4 -14 -1 -16 5 -4 8 -6 9
-6 2z"/>
<path d="M5344 5269 c-3 -6 -2 -15 3 -20 5 -5 9 -1 10 11 2 22 -2 25 -13 9z"/>
<path d="M2616 5246 c10 -8 21 -12 24 -10 5 6 -21 24 -34 24 -6 0 -1 -6 10
-14z"/>
<path d="M2605 5200 c-3 -6 1 -7 9 -4 18 7 21 14 7 14 -6 0 -13 -4 -16 -10z"/>
<path d="M2650 5201 c0 -10 19 -25 25 -20 1 2 -3 10 -11 17 -8 7 -14 8 -14 3z"/>
<path d="M4970 5160 c-41 -21 -70 -39 -65 -39 6 0 44 18 85 39 41 21 71 39 65
39 -5 0 -44 -18 -85 -39z"/>
<path d="M2660 5152 c0 -11 51 -48 63 -44 4 1 7 -4 7 -10 0 -9 4 -8 10 2 8 13
10 13 10 -1 0 -9 -7 -19 -15 -23 -8 -3 -15 -1 -15 3 0 5 -8 12 -17 15 -10 4
-14 4 -10 0 4 -4 3 -12 -3 -19 -7 -8 -1 -11 20 -9 33 2 34 1 20 -27 -8 -13 -7
-19 0 -19 6 0 10 -8 8 -17 -4 -24 10 -43 30 -42 12 0 10 3 -6 10 -15 5 -20 13
-16 21 6 9 9 9 12 0 2 -7 8 -9 14 -6 5 3 15 -2 23 -12 12 -17 13 -16 8 9 -3
15 -11 26 -17 24 -6 -2 -17 3 -25 11 -12 11 -12 18 -2 34 7 11 8 17 2 13 -14
-8 -14 8 -1 21 17 17 -14 38 -62 43 -4 1 -14 8 -22 17 -9 8 -16 11 -16 6z"/>
<path d="M4951 5099 c-46 -20 -92 -44 -101 -52 -10 -8 -28 -18 -41 -22 -48
-15 -81 -37 -72 -46 9 -9 113 45 121 64 2 4 10 7 17 7 8 0 42 13 77 29 35 16
73 32 86 36 24 7 30 22 10 22 -7 0 -51 -17 -97 -38z"/>
<path d="M2770 5122 c6 -2 10 -13 10 -25 0 -16 3 -18 9 -9 4 7 14 15 22 16 8
2 25 8 39 13 20 8 15 10 -33 9 -31 -1 -52 -2 -47 -4z"/>
<path d="M2866 5099 c3 -5 12 -9 20 -9 8 0 12 -5 9 -11 -4 -6 -14 -7 -24 -4
-26 11 -77 18 -68 9 4 -4 15 -9 24 -10 9 -2 27 -5 39 -8 26 -7 52 18 32 30
-19 12 -39 14 -32 3z"/>
<path d="M5068 5079 c-49 -25 -49 -34 -1 -14 40 17 49 23 42 29 -2 2 -21 -5
-41 -15z"/>
<path d="M5104 4880 c0 -107 2 -151 3 -97 2 53 2 141 0 195 -1 53 -3 9 -3 -98z"/>
<path d="M2790 5040 c-8 -5 -18 -6 -24 -3 -5 4 -6 1 -2 -6 5 -7 13 -10 20 -8
15 6 33 -15 29 -33 -2 -8 1 -6 8 4 9 15 9 21 1 24 -7 2 -10 8 -7 12 8 13 -9
20 -25 10z"/>
<path d="M4940 5018 c-107 -49 -101 -33 -100 -254 l2 -193 56 25 c122 54 192
87 189 90 -2 2 -52 -18 -112 -46 -60 -27 -112 -47 -116 -45 -9 6 -6 357 4 372
4 6 39 23 77 38 38 15 72 31 76 36 8 14 -6 10 -76 -23z"/>
<path d="M2847 5013 c-10 -9 -9 -23 1 -23 5 0 9 7 9 15 0 17 -1 18 -10 8z"/>
<path d="M2883 4958 c-13 -6 -23 -16 -23 -21 0 -6 3 -8 6 -5 3 4 19 2 35 -2
18 -5 27 -5 24 1 -4 5 -13 9 -22 9 -13 0 -13 3 -3 15 14 17 13 18 -17 3z"/>
<path d="M2940 4931 c0 -5 5 -13 10 -16 6 -3 10 -2 10 4 0 5 -4 13 -10 16 -5
3 -10 2 -10 -4z"/>
<path d="M2820 4921 c0 -5 7 -11 15 -15 9 -3 15 0 15 9 0 8 -7 15 -15 15 -8 0
-15 -4 -15 -9z"/>
<path d="M3060 4926 c0 -2 8 -10 18 -17 15 -13 16 -12 3 4 -13 16 -21 21 -21
13z"/>
<path d="M2895 4910 c-3 -5 -1 -10 4 -10 6 0 11 5 11 10 0 6 -2 10 -4 10 -3 0
-8 -4 -11 -10z"/>
<path d="M3045 4860 c3 -5 8 -10 11 -10 2 0 4 5 4 10 0 6 -5 10 -11 10 -5 0
-7 -4 -4 -10z"/>
<path d="M3080 4840 c-9 -6 -10 -10 -3 -10 6 0 15 5 18 10 8 12 4 12 -15 0z"/>
<path d="M3000 4799 c0 -5 5 -7 10 -4 6 3 10 8 10 11 0 2 -4 4 -10 4 -5 0 -10
-5 -10 -11z"/>
<path d="M3196 4785 c5 -11 1 -14 -12 -9 -17 5 -17 4 0 -7 15 -9 21 -9 24 -1
2 7 8 9 13 6 6 -4 6 -10 0 -18 -6 -6 -6 -18 -2 -25 7 -10 10 -9 16 8 7 24 1
37 -25 51 -16 9 -18 8 -14 -5z"/>
<path d="M3125 4750 c-3 -6 1 -7 9 -4 18 7 21 14 7 14 -6 0 -13 -4 -16 -10z"/>
<path d="M3123 4715 c0 -8 4 -15 9 -15 4 0 8 4 8 9 0 6 -4 12 -8 15 -5 3 -9
-1 -9 -9z"/>
<path d="M3245 4700 c3 -5 8 -10 11 -10 2 0 4 5 4 10 0 6 -5 10 -11 10 -5 0
-7 -4 -4 -10z"/>
<path d="M3365 4650 c3 -5 2 -10 -2 -10 -5 0 -9 -9 -9 -20 0 -23 11 -14 21 18
4 14 2 22 -5 22 -6 0 -8 -4 -5 -10z"/>
<path d="M3425 4600 c3 -5 8 -10 11 -10 2 0 4 5 4 10 0 6 -5 10 -11 10 -5 0
-7 -4 -4 -10z"/>
<path d="M3480 4550 c0 -5 7 -7 15 -4 8 4 15 2 15 -4 0 -5 -10 -12 -22 -16
-19 -5 -20 -8 -8 -15 10 -7 17 -6 22 2 6 9 8 9 8 0 0 -7 5 -13 12 -13 9 0 9 3
0 12 -7 7 -8 17 -2 27 7 13 3 17 -16 19 -13 1 -24 -3 -24 -8z"/>
<path d="M3446 4538 c3 -5 10 -6 15 -3 13 9 11 12 -6 12 -8 0 -12 -4 -9 -9z"/>
<path d="M3605 4511 c-3 -5 -2 -12 3 -15 5 -3 9 1 9 9 0 17 -3 19 -12 6z"/>
<path d="M5102 4074 c-2 -429 -1 -455 18 -515 23 -72 44 -101 113 -153 l49
-36 -204 0 -203 0 51 29 c63 37 164 156 164 193 0 7 -13 -9 -29 -37 -37 -64
-112 -135 -176 -169 l-50 -26 265 1 c146 1 251 4 233 9 -42 10 -112 51 -145
87 -15 15 -37 51 -50 78 -23 49 -23 56 -28 520 l-6 470 -2 -451z"/>
<path d="M3740 4466 c0 -8 4 -17 9 -20 5 -4 7 3 4 14 -6 23 -13 26 -13 6z"/>
<path d="M5009 3577 c-29 -37 -42 -57 -36 -57 7 0 69 81 65 85 -2 2 -15 -10
-29 -28z"/>
</g>
</svg>
